PathFileType	4	(X/Y/Z)	Walk6.trc
DataRate	CameraRate	NumFrames	NumMarkers	Units	OrigDataRate	OrigDataStartFrame	OrigNumFrames
200.000000	200.000000	7	60	mm	200.000000	545	752
Frame#	Times		RCAR		LTH3		RTH2		LBHD		LWRU		LCAR		LUA1		LFA1		LElbow		RTB3		RFA1		RToe		RASI		LElbowM		RMT5		RTB2		C7		RLFC		LTH2		RBHD		RPSI		LWRR		RMT1		RWRU		RTB1		LASI		RTB4		STRN		T10		CLAV		RBack		LPSI		RLMAL		RElbow		LTH4		LLFC		RUA1		LTB4		LACR1		LTB3		RCAL		LFHD		RTH3		LCAL		LTB1		LMMAL		RElbowM		RTH1		LTB2		RFHD		RACR1		LMFC		RTH4		RMFC		LLMAL		LMT5		RWRR		LTH1		LToe		LMT1
			X1	Y1	Z1	X2	Y2	Z2	X3	Y3	Z3	X4	Y4	Z4	X5	Y5	Z5	X6	Y6	Z6	X7	Y7	Z7	X8	Y8	Z8	X9	Y9	Z9	X10	Y10	Z10	X11	Y11	Z11	X12	Y12	Z12	X13	Y13	Z13	X14	Y14	Z14	X15	Y15	Z15	X16	Y16	Z16	X17	Y17	Z17	X18	Y18	Z18	X19	Y19	Z19	X20	Y20	Z20	X21	Y21	Z21	X22	Y22	Z22	X23	Y23	Z23	X24	Y24	Z24	X25	Y25	Z25	X26	Y26	Z26	X27	Y27	Z27	X28	Y28	Z28	X29	Y29	Z29	X30	Y30	Z30	X31	Y31	Z31	X32	Y32	Z32	X33	Y33	Z33	X34	Y34	Z34	X35	Y35	Z35	X36	Y36	Z36	X37	Y37	Z37	X38	Y38	Z38	X39	Y39	Z39	X40	Y40	Z40	X41	Y41	Z41	X42	Y42	Z42	X43	Y43	Z43	X44	Y44	Z44	X45	Y45	Z45	X46	Y46	Z46	X47	Y47	Z47	X48	Y48	Z48	X49	Y49	Z49	X50	Y50	Z50	X51	Y51	Z51	X52	Y52	Z52	X53	Y53	Z53	X54	Y54	Z54	X55	Y55	Z55	X56	Y56	Z56	X57	Y57	Z57	X58	Y58	Z58	X59	Y59	Z59	X60	Y60	Z60

545	2.725	-146.43	803.29	364.05	-194.16	598.26	-155.88	32.069	718.74	182.41	-149.69	1617	-66.318	90.188	902.89	-285.96	173.09	905.8	-285.61	-96.473	1286.9	-268.23	5.4038	1005.3	-312	-80.692	1133.6	-313.56	109.2	197.7	128.56	-219.77	973.3	327.16	271.95	50.043	159.48	-58.723	1020.2	157.49	-118.54	1106.5	-250.04	174.8	26.066	207.36	75.526	282.63	194.03	-171.42	1490.6	4.9719	21.156	498.1	198.74	-104.29	673.78	-142.91	-146.26	1623.6	75.164	-269.51	996.41	56.339	138.83	947.31	-234.48	225.41	45.757	134.57	-200.64	836.73	340.91	99.313	383.39	136.13	-64.891	1013.5	-130.65	105.82	290.35	131.06	7.2233	1229.2	3.9552	-276.07	1268.5	-0.6413	-39.116	1402.3	7.4158	-255.29	1401.5	128.97	-272.04	994.69	-20.183	78.469	68.039	170.86	-222.46	1120.2	292.93	-170.84	686.95	-166.18	-233.63	498.56	-147.76	-164.64	1267.2	262.28	-299.44	274.51	-75.821	-92.07	1447.6	-157.67	-351.56	193.45	-79.858	31.268	30.817	115.57	26.788	1667.1	-28.999	-5.8608	606.27	201.28	-518.67	71.528	-85.853	-251.31	350.18	-74.925	-419.92	107.66	-43.473	-233.37	1102	215.09	-64.046	787.43	218.15	-314.39	287.08	-149.12	27.563	1669	47.694	-102.65	1436.3	168.82	-220.11	499.56	-19.136	-31.459	697.74	214.78	38.049	509.69	66.691	-449.26	98.42	-127.29	-368.45	22.203	-159.6	-130.35	838.45	309.15	-145.08	776.51	-177.22	-265.42	28.114	-92.617	-318.24	37.799	-76.328
546	2.73	-140.28	802.83	365.05	-187.49	597.83	-155.15	38.423	719.37	183.23	-144.53	1617.2	-64.865	93.125	902.09	-285.04	176.04	904.72	-284.85	-92.287	1286.8	-266.98	8.6142	1004.8	-310.84	-77.034	1133.4	-312.18	111.68	197.19	128.47	-213.54	972.91	328.32	273.43	47.338	159	-52.914	1020.5	158.73	-114.74	1106.4	-248.53	175.21	25.369	207.6	79.644	282.43	194.34	-166.23	1490.7	6.363	27.366	498.54	199.65	-97.91	673.64	-142	-141	1623.7	76.618	-263.82	996.45	57.434	142.02	946.34	-233.65	226.31	44.229	134.31	-194.51	836.34	342	103.92	382.99	136.28	-59.156	1013.5	-129.18	109.34	289.88	131.07	12.701	1229.5	5.1169	-270.7	1268.4	0.6456	-33.91	1402.5	8.6335	-249.97	1401.3	130.39	-266.35	994.51	-19.122	79.628	67.999	170.88	-216.23	1119.8	294.18	-164.49	686.64	-165.27	-226.76	498.22	-147.22	-158.81	1266.8	263.5	-295.19	274.98	-75.784	-87.093	1447.7	-156.55	-348.46	194.68	-79.923	31.649	31.304	115.82	31.971	1667.3	-27.643	0.51027	606.84	201.99	-517.22	75.656	-85.834	-245.99	349.94	-74.802	-417.9	109.82	-43.688	-227.29	1101.6	216.34	-57.709	788.03	219.08	-309.99	287.88	-149.05	32.797	1669.1	49.052	-97.357	1436.1	170.06	-213.4	499.07	-18.72	-25.112	698.33	215.56	43.437	510.1	67.501	-447.56	101.16	-127.45	-368.37	22.723	-159.35	-124.27	837.96	310.09	-139.09	776.3	-176.13	-265.48	27.962	-92.672	-318.04	37.697	-76.309
547	2.735	-133.98	802.47	366.02	-180.53	597.4	-154.43	44.713	720.06	184.04	-139.37	1617.4	-63.413	95.89	901.27	-284.1	178.81	903.59	-284.11	-88.127	1286.7	-265.71	11.698	1004.3	-309.63	-73.437	1133.2	-310.74	114.03	196.74	128.36	-207.2	972.6	329.46	274.79	44.913	158.58	-47.114	1020.8	159.99	-110.98	1106.4	-246.93	175.54	24.86	207.85	83.6	282.25	194.64	-161.05	1490.8	7.7451	33.449	498.98	200.53	-91.314	673.57	-141.04	-135.73	1623.8	78.071	-258.13	996.59	58.53	145.09	945.33	-232.82	227.11	42.94	134.1	-188.25	836.05	343.07	108.36	382.62	136.42	-53.398	1013.6	-127.66	112.71	289.46	131.07	18.182	1229.8	6.2904	-265.32	1268.4	1.9256	-28.697	1402.7	9.8512	-244.66	1401.2	131.81	-260.66	994.42	-18.071	80.664	68.028	170.86	-209.93	1119.4	295.42	-157.92	686.35	-164.35	-219.57	497.89	-146.69	-152.95	1266.6	264.71	-290.66	275.52	-75.803	-82.11	1447.9	-155.43	-345.1	196.04	-80.031	31.999	31.757	116.04	37.162	1667.5	-26.287	6.8021	607.47	202.75	-515.5	80.089	-85.762	-240.36	349.73	-74.752	-415.61	112.13	-43.924	-221.16	1101.3	217.58	-51.415	788.72	220.02	-305.34	288.79	-149.02	38.04	1669.3	50.409	-92.063	1436.1	171.3	-206.42	498.57	-18.339	-18.819	698.99	216.38	48.726	510.56	68.296	-445.64	104.11	-127.59	-368.26	23.329	-159.09	-118.06	837.56	310.99	-132.94	776.12	-175	-265.58	27.808	-92.73	-317.83	37.579	-76.281
548	2.74	-127.55	802.21	366.94	-173.27	596.96	-153.72	50.919	720.76	184.85	-134.21	1617.8	-61.966	98.484	900.44	-283.13	181.42	902.4	-283.38	-83.988	1286.7	-264.42	14.657	1003.9	-308.38	-69.9	1133.1	-309.24	116.23	196.34	128.23	-200.77	972.39	330.59	276.04	42.757	158.2	-41.329	1021.3	161.26	-107.27	1106.5	-245.25	175.82	24.513	208.09	87.382	282.08	194.92	-155.86	1491	9.1166	39.369	499.41	201.39	-84.497	673.56	-140.02	-130.45	1624.1	79.518	-252.43	996.81	59.631	148.03	944.29	-231.99	227.83	41.869	133.91	-181.85	835.86	344.12	112.62	382.28	136.56	-47.623	1013.8	-126.09	115.92	289.09	131.05	23.663	1230.2	7.4715	-259.94	1268.5	3.198	-23.481	1403.1	11.067	-239.34	1401.1	133.23	-254.98	994.41	-17.026	81.588	68.111	170.8	-203.58	1119.2	296.65	-151.12	686.07	-163.42	-212.03	497.56	-146.2	-147.05	1266.5	265.91	-285.82	276.15	-75.886	-77.124	1448.2	-154.31	-341.44	197.52	-80.187	32.32	32.174	116.22	42.359	1667.8	-24.931	12.981	608.14	203.55	-513.5	84.83	-85.634	-234.42	349.57	-74.783	-413.05	114.59	-44.182	-214.96	1101	218.8	-45.178	789.47	221	-300.42	289.81	-149.03	43.288	1669.5	51.764	-86.764	1436.2	172.53	-199.14	498.06	-18.002	-12.602	699.7	217.25	53.897	511.06	69.065	-443.49	107.25	-127.74	-368.12	24.032	-158.8	-111.72	837.27	311.85	-126.63	775.97	-173.83	-265.74	27.654	-92.79	-317.6	37.447	-76.242
549	2.745	-120.98	802.04	367.83	-165.71	596.51	-153.03	57.021	721.46	185.64	-129.04	1618.2	-60.525	100.91	899.6	-282.14	183.85	901.16	-282.66	-79.866	1286.8	-263.1	17.494	1003.5	-307.08	-66.423	1133.1	-307.69	118.3	195.97	128.09	-194.23	972.25	331.7	277.17	40.856	157.88	-35.56	1022	162.55	-103.62	1106.7	-243.51	176.04	24.301	208.3	90.976	281.93	195.17	-150.69	1491.2	10.476	45.088	499.82	202.21	-77.458	673.61	-138.96	-125.18	1624.4	80.957	-246.74	997.11	60.74	150.83	943.22	-231.17	228.48	40.997	133.74	-175.31	835.76	345.14	116.69	381.96	136.69	-41.837	1014.1	-124.49	118.97	288.74	131.01	29.141	1230.7	8.6558	-254.55	1268.7	4.4627	-18.263	1403.5	12.278	-234.02	1401.2	134.64	-249.31	994.48	-15.981	82.409	68.232	170.71	-197.17	1119	297.87	-144.09	685.8	-162.49	-204.13	497.24	-145.73	-141.13	1266.4	267.1	-280.65	276.85	-76.039	-72.136	1448.6	-153.19	-337.48	199.12	-80.395	32.614	32.552	116.36	47.56	1668.2	-23.577	19.012	608.83	204.39	-511.17	89.876	-85.451	-228.13	349.45	-74.904	-410.17	117.19	-44.467	-208.71	1100.9	220.02	-39.015	790.26	221.99	-295.22	290.94	-149.09	48.54	1669.8	53.116	-81.46	1436.3	173.76	-191.53	497.53	-17.713	-6.4889	700.44	218.14	58.927	511.57	69.802	-441.07	110.6	-127.87	-367.93	24.845	-158.49	-105.27	837.08	312.68	-120.16	775.83	-172.64	-265.95	27.5	-92.849	-317.36	37.302	-76.193
550	2.75	-114.25	801.99	368.68	-157.83	596.06	-152.38	62.999	722.13	186.43	-123.87	1618.7	-59.096	103.17	898.75	-281.12	186.11	899.88	-281.95	-75.754	1287	-261.77	20.211	1003.1	-305.74	-63.003	1133.1	-306.08	120.24	195.64	127.93	-187.6	972.21	332.79	278.2	39.195	157.59	-29.81	1022.7	163.86	-100.01	1107	-241.69	176.22	24.197	208.48	94.374	281.77	195.39	-145.53	1491.5	11.822	50.575	500.19	202.99	-70.195	673.73	-137.87	-119.9	1624.8	82.384	-241.05	997.48	61.862	153.51	942.12	-230.35	229.05	40.302	133.6	-168.63	835.77	346.14	120.57	381.65	136.81	-36.048	1014.5	-122.85	121.85	288.41	130.96	34.611	1231.3	9.8386	-249.17	1268.9	5.7204	-13.046	1404	13.483	-228.69	1401.4	136.04	-243.67	994.63	-14.933	83.136	68.377	170.58	-190.72	1118.9	299.09	-136.82	685.54	-161.57	-195.89	496.92	-145.31	-135.17	1266.5	268.29	-275.15	277.62	-76.266	-67.149	1449.1	-152.06	-333.19	200.82	-80.659	32.881	32.891	116.46	52.761	1668.6	-22.23	24.86	609.5	205.25	-508.5	95.22	-85.213	-221.5	349.36	-75.117	-406.97	119.93	-44.778	-202.41	1100.8	221.22	-32.941	791.07	222.99	-289.73	292.19	-149.21	53.791	1670.2	54.461	-76.151	1436.6	174.97	-183.58	496.95	-17.475	-0.50488	701.19	219.05	63.794	512.09	70.507	-438.37	114.13	-128	-367.68	25.784	-158.17	-98.69	837.01	313.46	-113.54	775.72	-171.41	-266.2	27.348	-92.907	-317.09	37.152	-76.132
551	2.755	-107.37	802.03	369.48	-149.66	595.6	-151.76	68.835	722.74	187.22	-118.71	1619.3	-57.679	105.27	897.89	-280.07	188.21	898.55	-281.26	-71.649	1287.2	-260.41	22.812	1002.7	-304.37	-59.638	1133.2	-304.43	122.04	195.32	127.77	-180.88	972.24	333.87	279.12	37.758	157.35	-24.083	1023.5	165.18	-96.457	1107.3	-239.8	176.36	24.179	208.64	97.567	281.61	195.58	-140.37	1491.9	13.154	55.798	500.51	203.72	-62.709	673.9	-136.74	-114.64	1625.2	83.796	-235.36	997.91	63	156.07	940.98	-229.53	229.55	39.759	133.47	-161.81	835.87	347.11	124.24	381.34	136.92	-30.263	1015	-121.2	124.56	288.1	130.9	40.071	1232	11.016	-243.79	1269.1	6.9724	-7.8321	1404.6	14.679	-223.36	1401.6	137.44	-238.04	994.86	-13.876	83.776	68.531	170.41	-184.24	1119	300.29	-129.33	685.27	-160.66	-187.29	496.6	-144.93	-129.19	1266.7	269.46	-269.29	278.46	-76.569	-62.165	1449.7	-150.94	-328.55	202.63	-80.98	33.12	33.19	116.52	57.961	1669.1	-20.891	30.495	610.15	206.12	-505.44	100.85	-84.924	-214.5	349.3	-75.424	-403.41	122.79	-45.119	-196.07	1100.9	222.41	-26.973	791.88	224	-283.95	293.56	-149.37	59.038	1670.7	55.797	-70.835	1437	176.18	-175.27	496.34	-17.291	5.3256	701.91	219.97	68.479	512.58	71.18	-435.35	117.85	-128.13	-367.33	26.865	-157.84	-91.989	837.06	314.2	-106.75	775.63	-170.17	-266.5	27.198	-92.962	-316.78	37.003	-76.059
